<svg xmlns="http://www.w3.org/2000/svg" viewBox="0 0 1000 280" width="1000" height="280">
  <rect width="1000" height="280" rx="28" fill="#0d2a40"/>
  <rect width="1000" height="280" rx="28" fill="url(#g)" opacity="0.35"/>
  <defs>
    <linearGradient id="g" x1="0" y1="0" x2="1" y2="1">
      <stop offset="0" stop-color="#1a6ea8"/>
      <stop offset="1" stop-color="#0d2a40"/>
    </linearGradient>
  </defs>
  <!-- badge (scaled icon, centered vertically) -->
  <g transform="translate(60,28) scale(0.4297)">
    <circle cx="256" cy="256" r="248" fill="#1a6ea8" opacity="0.18"/>
    <circle cx="256" cy="256" r="216" fill="#1a6ea8"/>
    <circle cx="256" cy="256" r="216" fill="none" stroke="#2ea8d8" stroke-width="10" opacity="0.9"/>
    <circle cx="256" cy="256" r="159" fill="#0d4f7c"/>
    <rect x="240" y="120" width="32" height="180" rx="16" fill="none" stroke="#ffffff" stroke-width="14"/>
    <circle cx="256" cy="330" r="40" fill="#ffffff"/>
    <rect x="247" y="180" width="18" height="150" rx="9" fill="#ffffff"/>
    <line x1="288" y1="160" x2="312" y2="160" stroke="#ffffff" stroke-width="10" stroke-linecap="round"/>
    <line x1="288" y1="195" x2="312" y2="195" stroke="#ffffff" stroke-width="10" stroke-linecap="round"/>
    <line x1="288" y1="230" x2="312" y2="230" stroke="#ffffff" stroke-width="10" stroke-linecap="round"/>
    <line x1="288" y1="265" x2="312" y2="265" stroke="#ffffff" stroke-width="10" stroke-linecap="round"/>
  </g>
  <text x="290" y="140" font-family="Segoe UI, Arial, sans-serif" font-size="62" font-weight="700" fill="#ffffff">Telink Manager</text>
  <text x="292" y="190" font-family="Segoe UI, Arial, sans-serif" font-size="27" font-weight="400" fill="#9fc7e4">Manage PVVX/ATC BLE thermometers from Home Assistant</text>
</svg>
