<svg xmlns="http://www.w3.org/2000/svg" viewBox="0 0 1000 260" width="1000" height="260">
  <defs>
    <radialGradient id="glow" cx="0.14" cy="0.5" r="0.72">
      <stop offset="0" stop-color="#1c5a86"/>
      <stop offset="0.62" stop-color="#0c1c28"/>
      <stop offset="1" stop-color="#0a1822"/>
    </radialGradient>
  </defs>
  <rect width="1000" height="260" rx="22" fill="#0a1822"/>
  <rect width="1000" height="260" rx="22" fill="url(#glow)"/>

  <!-- badge (icon), centered vertically; scaled from the 512 viewBox -->
  <g transform="translate(46,71) scale(0.2305)">
    <circle cx="256" cy="256" r="248" fill="#1a6ea8" opacity="0.18"/>
    <circle cx="256" cy="256" r="216" fill="#1a6ea8"/>
    <circle cx="256" cy="256" r="216" fill="none" stroke="#2ea8d8" stroke-width="10" opacity="0.9"/>
    <circle cx="256" cy="256" r="159" fill="#0d4f7c"/>
    <rect x="240" y="120" width="32" height="180" rx="16" fill="none" stroke="#ffffff" stroke-width="14"/>
    <circle cx="256" cy="330" r="40" fill="#ffffff"/>
    <rect x="247" y="180" width="18" height="150" rx="9" fill="#ffffff"/>
    <line x1="288" y1="160" x2="312" y2="160" stroke="#ffffff" stroke-width="10" stroke-linecap="round"/>
    <line x1="288" y1="195" x2="312" y2="195" stroke="#ffffff" stroke-width="10" stroke-linecap="round"/>
    <line x1="288" y1="230" x2="312" y2="230" stroke="#ffffff" stroke-width="10" stroke-linecap="round"/>
    <line x1="288" y1="265" x2="312" y2="265" stroke="#ffffff" stroke-width="10" stroke-linecap="round"/>
  </g>

  <text x="196" y="110" font-family="Segoe UI, Arial, sans-serif" font-size="44" font-weight="700" fill="#ffffff">Telink Manager</text>
  <circle cx="204" cy="142" r="3.4" fill="#2ea8d8"/>
  <text x="216" y="147" font-family="Segoe UI, Arial, sans-serif" font-size="16"><tspan fill="#8b97a4">by </tspan><tspan fill="#2ea8d8" font-weight="600">Csontikka</tspan></text>
  <text x="198" y="186" font-family="Segoe UI, Arial, sans-serif" font-size="19" font-weight="400" fill="#9fc7e4">Manage PVVX/ATC-firmware BLE thermometers from Home Assistant</text>
</svg>
